<?xml version="1.0" encoding="UTF-8" standalone="no"?>
<!DOCTYPE svg PUBLIC "-//W3C//DTD SVG 1.1//EN" "http://www.w3.org/Graphics/SVG/1.1/DTD/svg11.dtd">
<svg version="1.1" xmlns="http://www.w3.org/2000/svg" xmlns:xlink="http://www.w3.org/1999/xlink" preserveAspectRatio="xMidYMid meet" viewBox="-9.06186576649769 3.870777854181142 474.60598862286645 399.5584380404657" width="439.87" height="380.56"><defs><path d="M327.61 255.17C394.55 255.17 448.81 199.14 448.81 130.02C448.81 60.91 394.55 4.87 327.61 4.87C260.66 4.87 206.39 60.91 206.39 130.02C206.39 199.14 260.66 255.17 327.61 255.17Z" id="a18uAI7Pp"></path><radialGradient id="gradientb1gxjCUzmY" gradientUnits="userSpaceOnUse" cx="327.6" cy="105.25" dx="389.41" dy="-63.8" r="179.99"><stop style="stop-color: #ffe592;stop-opacity: 1" offset="0%"></stop><stop style="stop-color: #ffc300;stop-opacity: 1" offset="100%"></stop></radialGradient><path d="M260.77 139.01C250.44 99.73 217.34 70.97 178.07 70.97C130.53 70.97 91.98 113.11 91.98 165.09C91.98 168.78 92.19 172.4 92.58 175.97C45.39 182.71 8.94 226.8 8.94 280.24C8.94 338.34 52.01 385.43 105.15 385.43C131.74 385.43 344.48 385.43 371.07 385.43C413.31 385.43 447.54 347.99 447.54 301.82C447.54 255.65 413.31 218.2 371.07 218.2C370.52 218.2 368.62 218.2 368.35 218.2C366.22 171.35 330.83 134.09 287.44 134.09C278.1 134.09 269.14 135.83 260.77 139.01Z" id="ceEjFICaM"></path></defs><g><g><use xlink:href="#a18uAI7Pp" opacity="1" fill="url(#gradientb1gxjCUzmY)"></use><g><use xlink:href="#a18uAI7Pp" opacity="1" fill-opacity="0" stroke="#000000" stroke-width="1" stroke-opacity="0"></use></g></g><g><g><filter id="shadow15232698" x="-31.06" y="30.97" width="518.61" height="394.46" filterUnits="userSpaceOnUse" primitiveUnits="userSpaceOnUse"><feFlood></feFlood><feComposite in2="SourceAlpha" operator="in"></feComposite><feGaussianBlur stdDeviation="4.12"></feGaussianBlur><feOffset dx="0" dy="0" result="afterOffset"></feOffset><feFlood flood-color="#000000" flood-opacity="0.16"></feFlood><feComposite in2="afterOffset" operator="in"></feComposite><feMorphology operator="dilate" radius="1"></feMorphology><feComposite in2="SourceAlpha" operator="out"></feComposite></filter><path d="M260.77 139.01C250.44 99.73 217.34 70.97 178.07 70.97C130.53 70.97 91.98 113.11 91.98 165.09C91.98 168.78 92.19 172.4 92.58 175.97C45.39 182.71 8.94 226.8 8.94 280.24C8.94 338.34 52.01 385.43 105.15 385.43C131.74 385.43 344.48 385.43 371.07 385.43C413.31 385.43 447.54 347.99 447.54 301.82C447.54 255.65 413.31 218.2 371.07 218.2C370.52 218.2 368.62 218.2 368.35 218.2C366.22 171.35 330.83 134.09 287.44 134.09C278.1 134.09 269.14 135.83 260.77 139.01Z" id="a1awW1IB9P" fill="white" fill-opacity="1" filter="url(#shadow15232698)"></path></g><use xlink:href="#ceEjFICaM" opacity="1" fill="#e0ebfc" fill-opacity="1"></use><g><use xlink:href="#ceEjFICaM" opacity="1" fill-opacity="0" stroke="#000000" stroke-width="1" stroke-opacity="0"></use></g></g></g></svg>